<?xml version="1.0" encoding="UTF-8"?> <svg xmlns="http://www.w3.org/2000/svg" height="98" viewBox="0 0 480 98" width="480"><path d="m476.2 38.7h-2.7c-2 0-3.1 1.1-3.1 3.1v24.7c-.1 18.5-13.1 22.9-19.4 22.9-7.2 0-14.5-4.4-14.5-18.1v-29.5c0-2-1.1-3.1-3.1-3.1h-2.6c-2 0-3.1 1.3-3.1 3.1v29.5c0 18.8 10.6 25.9 22.7 25.9 8.5 0 17-4.4 20-13.4v9.1c0 2 1.1 3.1 3.1 3.1h2.6c2 0 3.1-1.1 3.1-3.1v-51c0-2-1.1-3.2-3-3.2zm-416.9-27.1c2.5-2.5 3.9-5.9 3.9-9.5 0-1.1-.9-2.1-2.1-2.1-1.1 0-2.1.9-2.1 2.1 0 1.7-.4 3.2-1.2 4.6-.8-1.4-1.2-3-1.2-4.6 0-1.1-.9-2.1-2.1-2.1s-2.1.9-2.1 2.1c0 2.8.9 5.5 2.5 7.7-1.5 1-3.2 1.5-5.1 1.5-2.5 0-4.8-1-6.5-2.7-.8-.8-2.1-.8-2.9 0s-.8 2.1 0 2.9c2 2 4.5 3.2 7.2 3.7l-2.7.8-16.1 4.5.2.6c.8 2.8 3.2 5 6.1 5.5l9.8 1.7v-.1 8h-20c-12.8 0-23.2 10.4-23.2 23.2l-1.7 34.7c0 .9.7 1.7 1.6 1.7h1.7c.8 0 1.5-.6 1.6-1.3l5.4-30.2 5.4 30.2c.1.8.8 1.3 1.6 1.3h1.7c.9 0 1.7-.8 1.6-1.7l-1.6-34.7h12.2l-1.7 34.7c0 .9.7 1.7 1.6 1.7h1.7c.8 0 1.5-.6 1.6-1.3l5.4-30.2 5.4 30.2c.1.8.8 1.3 1.6 1.3h1.7c.9 0 1.7-.8 1.6-1.7l-1.7-35.1c7.8-1.8 12.9-9.8 10.8-17.9l-5.2-20.5c.4.3.9.6 1.4.9 3 1.2 6.4-.2 7.6-3.1l-8.8-3.7c1.8-.5 3.6-1.6 5.1-3.1zm270.9 27.1c-2 0-3.1 1.3-3.1 3.1v51c0 2 1.1 3.1 3.1 3.1h2.6c1.8 0 3-1.1 3-3.1v-51c0-2-1.1-3.1-3-3.1zm1.3-12.6c3.6 0 6.3-2.8 6.3-6.4 0-3.8-2.8-6.5-6.3-6.5-3.7 0-6.3 2.8-6.3 6.5 0 3.6 2.6 6.4 6.3 6.4zm-88.4 26.7c2.4.3 4-1 4-4.2v-8c0-2.3-.6-4.5-3.3-4.7l-2-.1c-5 0-13.3 3.3-15.3 14.1v-7.3c0-3.6-2-5.5-5.5-5.5h-6.3c-3.6 0-5.5 2-5.5 5.5v48c0 3.6 2 5.5 5.5 5.5h6.8c3.6 0 5.5-2 5.5-5.5v-18.6c0-14.8 6.3-19.3 13.2-19.3.9-.1 1.8 0 2.9.1zm-53.6-15.8h-6.8c-3.6 0-5.5 2-5.5 5.5v2.9c-4.2-6.7-11.1-9.6-18.9-9.6-16.5 0-28.3 13.4-28.3 30.7 0 17.4 11.8 30.7 28.3 30.7 7.8 0 14.7-3 18.9-9.5v2.8c0 3.6 2 5.5 5.5 5.5h6.8c3.6 0 5.5-2 5.5-5.5v-48c0-3.5-1.9-5.5-5.5-5.5zm-27.1 46c-9.3 0-14.7-7.3-14.7-16.5 0-9.1 5.4-16.5 14.7-16.5 9.1 0 15 7.1 15 16.5s-5.9 16.5-15 16.5zm144.7 7.6c3.1-2.3 3.3-5.4 1-8.1l-1.3-1.6c-2.2-2.6-4.7-2.9-7.8-1.1-4.5 2.5-8.8 3.6-13.1 3.6-11.4 0-18.4-6.8-18.1-13.8h41.1c3.4 0 5.7-1.5 5.6-4.8-.8-18.8-14.6-28.9-31.3-28.9-19.8 0-32.3 14.3-32.3 31 0 16.9 12.8 30.5 34 30.5 7.5-.2 15.4-1.9 22.2-6.8zm-23.7-41.4c6.1 0 12.8 2.5 14.5 10.4h-29.6c1.9-7.7 8.9-10.4 15.1-10.4zm-161.5 35.3-1.8-2.3c-2.1-2.8-4.5-2.9-7.8-1.4-3.8 1.8-7.5 2.1-9.1 2.1-10 0-17.2-6.8-17.2-16.4s7.2-16.4 17.2-16.4c1.6 0 5.3.2 9.1 2.1 3.3 1.5 5.6 1.4 7.8-1.4l1.8-2.3c2.2-2.9 2.1-5.9-1-7.8-6.3-3.7-13.1-4.9-18.7-4.9-20.8 0-34 13.9-34 31.1 0 16.9 13.4 30.4 34 30.4 5.4 0 11.8-1.1 17.7-4.5 3.8-2.1 4.2-5.4 2-8.3zm264-47c-9.1 0-17.2 3.9-22.4 12.5v-33.9c0-2-1.1-3.1-3.1-3.1h-2.6c-1.8 0-3 1.1-3 3.1v76.7c0 2 1.1 3.1 3 3.1h2.6c2 0 3.1-1.1 3.1-3.1v-8.1c5.2 8.7 13.3 12.5 22.4 12.5 17.4 0 28.7-13.4 28.7-29.8 0-16.5-11.3-29.9-28.7-29.9zm-.9 51.9c-12.6 0-21.6-9.2-21.7-22 .1-13 9.1-22.1 21.7-22.1 13.1 0 20.8 10 20.8 22.1-.1 12-7.8 22-20.8 22z" transform="translate(.5 .3)"></path></svg> 